<svg xmlns="http://www.w3.org/2000/svg" xmlns:xlink="http://www.w3.org/1999/xlink" width="200" zoomAndPan="magnify" viewBox="0 0 150 149.999998" height="200" preserveAspectRatio="xMidYMid meet" version="1.0"><defs><clipPath id="72a5eff00a"><path d="M 5.488281 53 L 83 53 L 83 122 L 5.488281 122 Z M 5.488281 53 " clip-rule="nonzero"/></clipPath><clipPath id="bccb0cdafd"><path d="M 73 35 L 145.738281 35 L 145.738281 111 L 73 111 Z M 73 35 " clip-rule="nonzero"/></clipPath><clipPath id="17e2833417"><path d="M 90 11.558594 L 111 11.558594 L 111 29 L 90 29 Z M 90 11.558594 " clip-rule="nonzero"/></clipPath><clipPath id="5ede330eca"><path d="M 37 118 L 115 118 L 115 139.058594 L 37 139.058594 Z M 37 118 " clip-rule="nonzero"/></clipPath></defs><rect x="-15" width="180" fill="#ffffff" y="-15" height="179.999997" fill-opacity="1"/><rect x="-15" width="180" fill="#ffffff" y="-15" height="179.999997" fill-opacity="1"/><path fill="#9e616a" d="M 38.230469 34.835938 C 39.878906 25.613281 48.6875 19.472656 57.90625 21.117188 C 67.128906 22.765625 73.269531 31.574219 71.625 40.792969 C 70.289062 48.273438 64.242188 53.722656 57.085938 54.640625 L 50.054688 75.394531 L 36.046875 58.746094 C 36.046875 58.746094 40.410156 54.851562 43.226562 50.089844 C 39.253906 46.292969 37.195312 40.648438 38.230469 34.835938 Z M 38.230469 34.835938 " fill-opacity="1" fill-rule="nonzero"/><g clip-path="url(#72a5eff00a)"><path fill="#090814" d="M 39.601562 53.929688 C 39.601562 53.929688 17.195312 57.707031 14.238281 62.238281 C 11.28125 66.773438 8.128906 73.277344 8.128906 73.277344 C 8.128906 73.277344 -0.34375 115.449219 13.054688 121.363281 L 67.191406 113.640625 L 60.550781 93.769531 L 67.25 113.675781 L 82.925781 111.167969 C 82.925781 111.167969 73.558594 64.800781 68.238281 61.648438 C 62.917969 58.496094 56.265625 59.34375 56.265625 59.34375 C 56.265625 59.34375 45.671875 69.867188 39.710938 53.933594 Z M 39.601562 53.929688 " fill-opacity="1" fill-rule="nonzero"/></g><path fill="#2d253b" d="M 51.671875 28.066406 C 51.671875 28.066406 56.414062 29.523438 58.382812 27.160156 C 58.382812 27.160156 63.113281 27.355469 64.097656 29.917969 C 65.085938 32.480469 70.996094 33.664062 72.96875 31.496094 C 74.9375 29.328125 77.894531 25.386719 74.148438 21.839844 C 74.148438 21.839844 73.558594 18.09375 70.40625 17.304688 L 68.632812 18.882812 C 68.632812 18.882812 45.203125 7.863281 42.433594 19.089844 C 42.433594 19.089844 38.191406 18.289062 40.207031 20.851562 C 40.207031 20.851562 37.933594 23.488281 36.492188 28.484375 C 34.230469 36.324219 36.878906 44.761719 43.148438 49.988281 C 43.148438 49.988281 38.109375 36.761719 42.433594 40.632812 C 46.757812 44.503906 46.558594 35.632812 46.558594 35.632812 C 46.558594 35.632812 53.039062 31.734375 51.671875 28.066406 Z M 51.671875 28.066406 " fill-opacity="1" fill-rule="nonzero"/><g clip-path="url(#bccb0cdafd)"><path fill="#ea4325" d="M 142.5625 35.488281 L 78.117188 40.949219 C 76.753906 41.066406 75.691406 42.183594 75.648438 43.550781 L 73.746094 101.246094 C 73.699219 102.664062 74.757812 103.875 76.167969 104.023438 L 142.515625 110.859375 C 144.105469 111.023438 145.492188 109.773438 145.492188 108.175781 L 145.492188 38.179688 C 145.492188 36.597656 144.136719 35.355469 142.5625 35.488281 Z M 142.5625 35.488281 " fill-opacity="1" fill-rule="nonzero"/></g><path fill="#ffffff" d="M 81.113281 46.484375 L 79.46875 97.769531 L 137.410156 103.035156 L 138.789062 42.53125 Z M 81.113281 46.484375 " fill-opacity="1" fill-rule="nonzero"/><path fill="#ea4325" d="M 84.109375 53.113281 L 134.417969 50.285156 C 135.078125 50.25 135.636719 50.777344 135.636719 51.441406 L 135.636719 61.367188 C 135.636719 61.988281 135.144531 62.496094 134.523438 62.519531 L 84.214844 64.363281 C 83.5625 64.386719 83.019531 63.863281 83.019531 63.207031 L 83.019531 54.265625 C 83.019531 53.652344 83.496094 53.148438 84.109375 53.113281 Z M 84.109375 53.113281 " fill-opacity="1" fill-rule="nonzero"/><path fill="#2d253b" d="M 119.476562 56.328125 C 119.269531 56.328125 119.09375 56.164062 119.082031 55.953125 C 119.070312 55.734375 119.238281 55.550781 119.457031 55.539062 L 131.28125 54.949219 C 131.5 54.9375 131.683594 55.105469 131.695312 55.320312 C 131.707031 55.539062 131.539062 55.722656 131.320312 55.734375 L 119.496094 56.328125 C 119.488281 56.328125 119.484375 56.328125 119.476562 56.328125 Z M 119.476562 56.328125 " fill-opacity="1" fill-rule="nonzero"/><path fill="#2d253b" d="M 113.5625 58.890625 C 113.351562 58.890625 113.175781 58.722656 113.171875 58.507812 C 113.164062 58.289062 113.332031 58.109375 113.550781 58.101562 L 131.289062 57.511719 C 131.503906 57.507812 131.6875 57.675781 131.695312 57.890625 C 131.703125 58.109375 131.53125 58.292969 131.3125 58.296875 L 113.578125 58.890625 C 113.574219 58.890625 113.570312 58.890625 113.5625 58.890625 Z M 113.5625 58.890625 " fill-opacity="1" fill-rule="nonzero"/><path fill="#ffffff" d="M 85.609375 59.199219 L 84.125 75.851562 C 84.058594 76.589844 84.628906 77.234375 85.371094 77.253906 L 105.652344 77.777344 C 106.332031 77.792969 106.910156 77.277344 106.964844 76.597656 L 108.457031 58.859375 C 108.554688 57.726562 107.628906 56.773438 106.496094 56.832031 L 87.023438 57.835938 C 86.277344 57.875 85.675781 58.457031 85.609375 59.199219 Z M 85.609375 59.199219 " fill-opacity="1" fill-rule="nonzero"/><path fill="#2d253b" d="M 106.59375 57.617188 C 106.898438 57.617188 107.183594 57.742188 107.390625 57.96875 C 107.597656 58.195312 107.699219 58.488281 107.671875 58.792969 L 106.179688 76.53125 C 106.160156 76.789062 105.941406 76.988281 105.683594 76.988281 L 105.671875 76.988281 L 85.394531 76.464844 C 85.207031 76.460938 85.089844 76.359375 85.035156 76.296875 C 84.980469 76.238281 84.894531 76.109375 84.910156 75.921875 L 86.394531 59.269531 C 86.425781 58.921875 86.714844 58.644531 87.0625 58.625 L 106.535156 57.621094 C 106.554688 57.617188 106.574219 57.617188 106.59375 57.617188 M 106.59375 56.828125 C 106.5625 56.828125 106.527344 56.832031 106.496094 56.832031 L 87.023438 57.835938 C 86.277344 57.875 85.675781 58.457031 85.609375 59.199219 L 84.125 75.851562 C 84.058594 76.589844 84.628906 77.234375 85.371094 77.253906 L 105.652344 77.777344 C 105.660156 77.777344 105.671875 77.777344 105.683594 77.777344 C 106.351562 77.777344 106.910156 77.265625 106.964844 76.597656 L 108.457031 58.859375 C 108.550781 57.761719 107.683594 56.828125 106.59375 56.828125 Z M 106.59375 56.828125 " fill-opacity="1" fill-rule="nonzero"/><path fill="#2d253b" d="M 84.988281 73.472656 L 91.492188 65.390625 L 95.433594 70.320312 L 100.359375 66.378906 L 106.667969 74.261719 L 106.273438 77.21875 L 84.730469 76.394531 Z M 84.988281 73.472656 " fill-opacity="1" fill-rule="nonzero"/><path fill="#ea4325" d="M 114.746094 68.9375 L 114.746094 80.867188 C 114.746094 82.195312 115.824219 83.273438 117.152344 83.273438 L 132.472656 83.273438 C 133.800781 83.273438 134.878906 82.195312 134.878906 80.867188 L 134.878906 68.667969 C 134.878906 67.324219 133.777344 66.242188 132.433594 66.265625 L 117.109375 66.535156 C 115.796875 66.554688 114.746094 67.625 114.746094 68.9375 Z M 114.746094 68.9375 " fill-opacity="1" fill-rule="nonzero"/><path fill="#2d253b" d="M 126.769531 88.253906 C 126.761719 88.253906 126.757812 88.253906 126.753906 88.253906 L 106.257812 87.40625 C 106.039062 87.398438 105.871094 87.214844 105.878906 86.996094 C 105.886719 86.78125 106.070312 86.613281 106.289062 86.621094 L 126.785156 87.464844 C 127.003906 87.472656 127.171875 87.65625 127.164062 87.875 C 127.152344 88.085938 126.980469 88.253906 126.769531 88.253906 Z M 126.769531 88.253906 " fill-opacity="1" fill-rule="nonzero"/><path fill="#2d253b" d="M 131.300781 92.648438 C 131.292969 92.648438 131.289062 92.648438 131.28125 92.648438 L 106.253906 91.398438 C 106.035156 91.390625 105.867188 91.203125 105.878906 90.988281 C 105.890625 90.769531 106.070312 90.601562 106.292969 90.613281 L 131.320312 91.859375 C 131.539062 91.871094 131.707031 92.054688 131.695312 92.273438 C 131.683594 92.484375 131.511719 92.648438 131.300781 92.648438 Z M 131.300781 92.648438 " fill-opacity="1" fill-rule="nonzero"/><path fill="#2d253b" d="M 127.953125 98.304688 C 127.941406 98.304688 127.933594 98.304688 127.925781 98.304688 L 103.488281 96.726562 C 103.269531 96.710938 103.105469 96.523438 103.121094 96.308594 C 103.132812 96.089844 103.324219 95.925781 103.539062 95.941406 L 127.976562 97.515625 C 128.195312 97.53125 128.359375 97.71875 128.34375 97.933594 C 128.332031 98.144531 128.15625 98.304688 127.953125 98.304688 Z M 127.953125 98.304688 " fill-opacity="1" fill-rule="nonzero"/><path fill="#2d253b" d="M 98.980469 63.71875 C 98.980469 63.941406 98.9375 64.152344 98.851562 64.359375 C 98.769531 64.5625 98.648438 64.746094 98.492188 64.902344 C 98.332031 65.058594 98.152344 65.179688 97.945312 65.265625 C 97.742188 65.351562 97.527344 65.390625 97.304688 65.390625 C 97.082031 65.390625 96.871094 65.351562 96.664062 65.265625 C 96.460938 65.179688 96.277344 65.058594 96.121094 64.902344 C 95.964844 64.746094 95.84375 64.5625 95.757812 64.359375 C 95.671875 64.152344 95.628906 63.941406 95.628906 63.71875 C 95.628906 63.496094 95.671875 63.28125 95.757812 63.078125 C 95.84375 62.871094 95.964844 62.691406 96.121094 62.53125 C 96.277344 62.375 96.460938 62.253906 96.664062 62.167969 C 96.871094 62.085938 97.082031 62.042969 97.304688 62.042969 C 97.527344 62.042969 97.742188 62.085938 97.945312 62.167969 C 98.152344 62.253906 98.332031 62.375 98.492188 62.53125 C 98.648438 62.691406 98.769531 62.871094 98.851562 63.078125 C 98.9375 63.28125 98.980469 63.496094 98.980469 63.71875 Z M 98.980469 63.71875 " fill-opacity="1" fill-rule="nonzero"/><path fill="#ea4325" d="M 84.199219 48.640625 C 84.199219 48.859375 84.144531 49.042969 84.027344 49.199219 C 83.910156 49.351562 83.773438 49.429688 83.609375 49.429688 C 83.445312 49.429688 83.304688 49.351562 83.191406 49.199219 C 83.074219 49.042969 83.019531 48.859375 83.019531 48.640625 C 83.019531 48.421875 83.074219 48.238281 83.191406 48.082031 C 83.304688 47.929688 83.445312 47.851562 83.609375 47.851562 C 83.773438 47.851562 83.910156 47.929688 84.027344 48.082031 C 84.144531 48.238281 84.199219 48.421875 84.199219 48.640625 Z M 84.199219 48.640625 " fill-opacity="1" fill-rule="nonzero"/><path fill="#ea4325" d="M 86.960938 48.445312 C 86.960938 48.660156 86.902344 48.847656 86.785156 49 C 86.671875 49.15625 86.53125 49.230469 86.367188 49.230469 C 86.203125 49.230469 86.066406 49.15625 85.949219 49 C 85.835938 48.847656 85.777344 48.660156 85.777344 48.445312 C 85.777344 48.226562 85.835938 48.039062 85.949219 47.886719 C 86.066406 47.734375 86.203125 47.65625 86.367188 47.65625 C 86.53125 47.65625 86.671875 47.734375 86.785156 47.886719 C 86.902344 48.039062 86.960938 48.226562 86.960938 48.445312 Z M 86.960938 48.445312 " fill-opacity="1" fill-rule="nonzero"/><path fill="#ea4325" d="M 89.324219 48.246094 C 89.324219 48.464844 89.265625 48.652344 89.152344 48.804688 C 89.035156 48.957031 88.894531 49.035156 88.734375 49.035156 C 88.570312 49.035156 88.429688 48.957031 88.316406 48.804688 C 88.199219 48.652344 88.140625 48.464844 88.140625 48.246094 C 88.140625 48.03125 88.199219 47.84375 88.316406 47.691406 C 88.429688 47.535156 88.570312 47.457031 88.734375 47.457031 C 88.894531 47.457031 89.035156 47.535156 89.152344 47.691406 C 89.265625 47.84375 89.324219 48.03125 89.324219 48.246094 Z M 89.324219 48.246094 " fill-opacity="1" fill-rule="nonzero"/><path fill="#ea4325" d="M 139.261719 16.921875 C 139.65625 16.921875 139.972656 17.238281 139.972656 17.632812 L 139.972656 30.125 C 139.972656 30.496094 139.695312 30.800781 139.324219 30.832031 L 122.375 32.34375 C 122.351562 32.34375 122.332031 32.34375 122.308594 32.34375 C 121.929688 32.34375 121.609375 32.035156 121.601562 31.652344 L 121.285156 20.191406 C 121.277344 19.832031 121.539062 19.519531 121.894531 19.46875 L 139.15625 16.929688 C 139.191406 16.921875 139.226562 16.921875 139.261719 16.921875 M 139.261719 16.132812 C 139.191406 16.132812 139.117188 16.136719 139.042969 16.148438 L 121.78125 18.6875 C 121.027344 18.800781 120.476562 19.453125 120.5 20.214844 L 120.8125 31.675781 C 120.835938 32.492188 121.507812 33.132812 122.308594 33.132812 C 122.355469 33.132812 122.398438 33.132812 122.445312 33.128906 L 139.394531 31.617188 C 140.167969 31.546875 140.761719 30.898438 140.761719 30.125 L 140.761719 17.632812 C 140.761719 16.792969 140.074219 16.132812 139.261719 16.132812 Z M 139.261719 16.132812 " fill-opacity="1" fill-rule="nonzero"/><path fill="#ea4325" d="M 124.996094 23.808594 C 124.796875 23.808594 124.628906 23.664062 124.601562 23.460938 C 124.578125 23.246094 124.730469 23.050781 124.949219 23.023438 L 136.378906 21.644531 C 136.59375 21.617188 136.789062 21.773438 136.816406 21.988281 C 136.84375 22.203125 136.6875 22.402344 136.472656 22.425781 L 125.042969 23.808594 C 125.027344 23.808594 125.011719 23.808594 124.996094 23.808594 Z M 124.996094 23.808594 " fill-opacity="1" fill-rule="nonzero"/><path fill="#ea4325" d="M 124.996094 27.148438 C 124.792969 27.148438 124.621094 26.996094 124.601562 26.792969 C 124.582031 26.574219 124.742188 26.382812 124.957031 26.363281 L 135.207031 25.386719 C 135.421875 25.367188 135.613281 25.527344 135.636719 25.742188 C 135.65625 25.960938 135.496094 26.152344 135.28125 26.171875 L 125.03125 27.148438 C 125.019531 27.148438 125.007812 27.148438 124.996094 27.148438 Z M 124.996094 27.148438 " fill-opacity="1" fill-rule="nonzero"/><g clip-path="url(#17e2833417)"><path fill="#ea4325" d="M 108.851562 12.386719 C 109.242188 12.386719 109.5625 12.707031 109.5625 13.101562 L 109.5625 25.589844 C 109.5625 25.960938 109.28125 26.265625 108.914062 26.300781 L 91.964844 27.808594 C 91.941406 27.8125 91.921875 27.8125 91.898438 27.8125 C 91.519531 27.8125 91.199219 27.503906 91.1875 27.121094 L 90.875 15.660156 C 90.867188 15.300781 91.125 14.988281 91.484375 14.9375 L 108.746094 12.394531 C 108.78125 12.390625 108.816406 12.386719 108.851562 12.386719 M 108.851562 11.597656 C 108.78125 11.597656 108.707031 11.605469 108.632812 11.617188 L 91.367188 14.15625 C 90.617188 14.265625 90.066406 14.921875 90.085938 15.679688 L 90.402344 27.140625 C 90.425781 27.960938 91.097656 28.601562 91.898438 28.601562 C 91.945312 28.601562 91.988281 28.597656 92.035156 28.59375 L 108.984375 27.085938 C 109.757812 27.015625 110.351562 26.367188 110.351562 25.589844 L 110.351562 13.101562 C 110.351562 12.261719 109.664062 11.597656 108.851562 11.597656 Z M 108.851562 11.597656 " fill-opacity="1" fill-rule="nonzero"/></g><path fill="#ea4325" d="M 94.582031 19.277344 C 94.386719 19.277344 94.214844 19.128906 94.191406 18.929688 C 94.167969 18.714844 94.320312 18.519531 94.535156 18.492188 L 105.964844 17.113281 C 106.183594 17.085938 106.378906 17.238281 106.40625 17.457031 C 106.429688 17.671875 106.277344 17.867188 106.0625 17.894531 L 94.632812 19.273438 C 94.613281 19.277344 94.597656 19.277344 94.582031 19.277344 Z M 94.582031 19.277344 " fill-opacity="1" fill-rule="nonzero"/><path fill="#ea4325" d="M 94.582031 22.617188 C 94.382812 22.617188 94.210938 22.464844 94.191406 22.257812 C 94.171875 22.042969 94.328125 21.851562 94.546875 21.828125 L 104.792969 20.855469 C 105.011719 20.835938 105.203125 20.992188 105.222656 21.210938 C 105.246094 21.425781 105.085938 21.621094 104.867188 21.640625 L 94.621094 22.613281 C 94.609375 22.617188 94.59375 22.617188 94.582031 22.617188 Z M 94.582031 22.617188 " fill-opacity="1" fill-rule="nonzero"/><g clip-path="url(#5ede330eca)"><path fill="#ea4325" d="M 37.820312 126.5625 L 78.878906 139.296875 L 114.746094 127.054688 L 74.148438 118.996094 Z M 37.820312 126.5625 " fill-opacity="1" fill-rule="nonzero"/></g><path fill="#ffffff" d="M 67.644531 122.347656 L 74.9375 120.574219 L 91.523438 124.222656 L 84.003906 126.5625 Z M 67.644531 122.347656 " fill-opacity="1" fill-rule="nonzero"/><path fill="#ffffff" d="M 84.792969 128.042969 L 69.222656 132.792969 L 80.0625 136.339844 L 94.84375 130.820312 Z M 84.792969 128.042969 " fill-opacity="1" fill-rule="nonzero"/><path fill="#9e616a" d="M 73.046875 97.570312 L 40.074219 115.140625 L 33.734375 105.792969 L 68.195312 88.507812 C 68.914062 85.992188 70.804688 83.613281 73.570312 82.128906 C 78.410156 79.539062 84.070312 80.683594 86.214844 84.6875 C 88.359375 88.691406 86.175781 94.039062 81.335938 96.628906 C 78.570312 98.113281 75.542969 98.367188 73.046875 97.570312 Z M 73.046875 97.570312 " fill-opacity="1" fill-rule="nonzero"/><path fill="#090814" d="M 26.851562 89.828125 L 25.273438 94.558594 C 25.273438 94.558594 29.019531 98.558594 25.273438 100.796875 L 38.480469 99.09375 C 38.480469 99.09375 43.824219 95.148438 44.207031 98.402344 C 44.207031 98.402344 50.894531 93.96875 52.273438 96.726562 C 52.273438 96.726562 48.320312 105.28125 54.535156 109.675781 L 46.261719 113.394531 L 40.371094 117.382812 L 13.054688 121.363281 " fill-opacity="1" fill-rule="nonzero"/><path fill="#090814" d="M 97.082031 95.492188 C 97.011719 95.492188 96.941406 95.488281 96.871094 95.480469 L 85.609375 94.398438 C 84.433594 94.289062 83.550781 93.234375 83.640625 92.054688 L 84.367188 82.742188 C 84.460938 81.550781 85.507812 80.65625 86.695312 80.734375 L 98.25 81.53125 C 98.847656 81.574219 99.386719 81.847656 99.773438 82.308594 C 100.15625 82.765625 100.335938 83.347656 100.269531 83.941406 L 99.253906 93.535156 C 99.136719 94.652344 98.183594 95.492188 97.082031 95.492188 Z M 84.859375 82.78125 L 85.347656 82.820312 L 84.625 92.132812 C 84.574219 92.78125 85.058594 93.355469 85.703125 93.417969 L 96.964844 94.5 C 97.617188 94.5625 98.203125 94.085938 98.273438 93.433594 L 99.292969 83.835938 C 99.324219 83.511719 99.230469 83.191406 99.015625 82.941406 C 98.804688 82.6875 98.507812 82.535156 98.179688 82.515625 L 86.628906 81.714844 C 85.976562 81.671875 85.402344 82.164062 85.347656 82.820312 Z M 84.859375 82.78125 " fill-opacity="1" fill-rule="nonzero"/><path fill="#090814" d="M 84.792969 92.984375 L 89.128906 88.648438 L 90.507812 90.617188 L 93.855469 86.875 L 98.257812 92.984375 L 97.996094 95.152344 L 84.988281 94.136719 Z M 84.792969 92.984375 " fill-opacity="1" fill-rule="nonzero"/></svg>